<?xml version="1.0" encoding="UTF-8"?>
<svg width="14px" height="13px" viewBox="0 0 14 13" version="1.1" xmlns="http://www.w3.org/2000/svg" xmlns:xlink="http://www.w3.org/1999/xlink">
    <!-- Generator: sketchtool 46.2 (44496) - http://www.bohemiancoding.com/sketch -->
    <title>AB48ED17-AC6E-4A42-99AC-DB8822C3C69E</title>
    <desc>Created with sketchtool.</desc>
    <defs></defs>
    <g id="Page-1" stroke="none" stroke-width="1" fill="none" fill-rule="evenodd">
        <g id="rs-Newsletter-tips-highlightstory" transform="translate(-157.000000, -1932.000000)" fill="#EC5447">
            <g id="Group-13" transform="translate(45.000000, 1928.000000)">
                <path d="M126,10.6554182 C126,10.6554182 124.11516,10.8120094 125.695816,8.26373726 C125.695816,8.26373726 123.0797,9.09595777 123.079013,7.53591085 C123.079013,7.53591085 119.42675,12.4242534 121.800481,5.61341694 L120.340674,6.28728684 L118.998283,4 L117.662073,6.28728684 L116.201579,5.61165749 C118.57531,12.4230804 114.9203,7.53591085 114.9203,7.53591085 C114.92236,9.09713074 112.303497,8.26315077 112.303497,8.26315077 C113.887586,10.8137688 112,10.6565912 112,10.6565912 C117.53985,13.0488586 115.04527,14.4523144 115.04527,14.4523144 L118.756584,13.776685 L118.511452,16.9478029 L119.001717,17 L119.487174,16.9472165 L119.244789,13.776685 L122.958164,14.4517279 C122.958164,14.4517279 120.460837,13.0482721 126,10.6554182" id="canada"></path>
            </g>
        </g>
    </g>
</svg>