<?xml version="1.0" encoding="UTF-8"?>
<svg width="35px" height="35px" viewBox="0 0 35 35" version="1.1" xmlns="http://www.w3.org/2000/svg" xmlns:xlink="http://www.w3.org/1999/xlink">
    <!-- Generator: sketchtool 46.2 (44496) - http://www.bohemiancoding.com/sketch -->
    <title>C21CF7C5-A518-4E34-8963-E67E01F34917</title>
    <desc>Created with sketchtool.</desc>
    <defs></defs>
    <g id="Page-1" stroke="none" stroke-width="1" fill="none" fill-rule="evenodd">
        <g id="rs-Newsletter-tips-highlightstory" transform="translate(-520.000000, -1920.000000)">
            <g id="Group-26" transform="translate(385.000000, 1920.000000)">
                <g id="instagram-icon" transform="translate(135.000000, 0.000000)">
                    <circle id="Oval" fill="#ECEEF0" cx="17.5" cy="17.5" r="17.5"></circle>
                    <g id="Group-11" transform="translate(9.000000, 8.000000)" fill="#FFFFFF">
                        <path d="M8.7675,0.444444444 C6.39143082,0.444444444 6.09360063,0.454571429 5.16033019,0.49752381 C4.22913522,0.54047619 3.59334906,0.689936508 3.03677673,0.908190476 C2.46152516,1.13377778 1.9734434,1.43584127 1.48709119,1.9268254 C1.00073899,2.41780952 0.701871069,2.91019048 0.478066038,3.49126984 C0.261871069,4.05279365 0.114166667,4.69498413 0.0716194969,5.63504762 C0.029072327,6.57685714 0.0186949686,6.87787302 0.0186949686,9.27657143 C0.0186949686,11.6749206 0.029072327,11.9759365 0.0716194969,12.917746 C0.114166667,13.8578095 0.261871069,14.5 0.478066038,15.0615238 C0.701871069,15.6426032 1.00073899,16.1349841 1.48709119,16.6259683 C1.9734434,17.1169524 2.46152516,17.4190159 3.03677673,17.6446032 C3.59334906,17.8628571 4.22913522,18.0123175 5.16033019,18.0552698 C6.09360063,18.0982222 6.39143082,18.1083492 8.7675,18.1083492 C11.1435692,18.1083492 11.4413994,18.0982222 12.3746698,18.0552698 C13.3058648,18.0123175 13.9416509,17.8628571 14.4982233,17.6446032 C15.0734748,17.4190159 15.5615566,17.1169524 16.0479088,16.6259683 C16.534261,16.1349841 16.8331289,15.6426032 17.056934,15.0615238 C17.2731289,14.5 17.4208333,13.8578095 17.4633805,12.917746 C17.5059277,11.9759365 17.516305,11.6749206 17.516305,9.27657143 C17.516305,6.87787302 17.5059277,6.57685714 17.4633805,5.63504762 C17.4208333,4.69498413 17.2731289,4.05279365 17.056934,3.49126984 C16.8331289,2.91019048 16.534261,2.41780952 16.0479088,1.9268254 C15.5615566,1.43584127 15.0734748,1.13377778 14.4982233,0.908190476 C13.9416509,0.689936508 13.3058648,0.54047619 12.3746698,0.49752381 C11.4413994,0.454571429 11.1435692,0.444444444 8.7675,0.444444444 M8.7675,2.03577778 C11.1034434,2.03577778 11.380173,2.04485714 12.3027201,2.08711111 C13.155739,2.12657143 13.6189151,2.27044444 13.9271226,2.39126984 C14.3356447,2.55155556 14.6269025,2.74292063 14.9330346,3.05196825 C15.2391667,3.36101587 15.4287264,3.65539683 15.5875,4.06746032 C15.7075314,4.37895238 15.8500472,4.84653968 15.8887893,5.70768254 C15.9309906,6.63866667 15.9396384,6.91803175 15.9396384,9.27657143 C15.9396384,11.6347619 15.9309906,11.914127 15.8887893,12.8451111 C15.8500472,13.706254 15.7075314,14.1738413 15.5875,14.4853333 C15.4287264,14.8973968 15.2391667,15.1917778 14.9330346,15.5008254 C14.6269025,15.809873 14.3356447,16.0012381 13.9271226,16.1615238 C13.6189151,16.2823492 13.155739,16.4262222 12.3027201,16.4656825 C11.380173,16.5079365 11.1037893,16.5170159 8.7675,16.5170159 C6.43121069,16.5170159 6.15482704,16.5079365 5.23227987,16.4656825 C4.37926101,16.4262222 3.91608491,16.2823492 3.60787736,16.1615238 C3.19935535,16.0012381 2.90809748,15.809873 2.60196541,15.5008254 C2.29583333,15.1917778 2.10627358,14.8973968 1.9475,14.4853333 C1.82746855,14.1738413 1.68495283,13.706254 1.64621069,12.8451111 C1.60400943,11.914127 1.59536164,11.6347619 1.59536164,9.27657143 C1.59536164,6.91803175 1.60400943,6.63866667 1.64621069,5.70768254 C1.68495283,4.84653968 1.82746855,4.37895238 1.9475,4.06746032 C2.10627358,3.65539683 2.29583333,3.36101587 2.60196541,3.05196825 C2.90809748,2.74292063 3.19935535,2.55155556 3.60787736,2.39126984 C3.91608491,2.27044444 4.37926101,2.12657143 5.23227987,2.08711111 C6.15482704,2.04485714 6.4315566,2.03577778 8.7675,2.03577778" id="Fill-1"></path>
                        <path d="M8.7675,12.220381 C7.15693396,12.220381 5.85146226,10.9024762 5.85146226,9.27657143 C5.85146226,7.65031746 7.15693396,6.3324127 8.7675,6.3324127 C10.378066,6.3324127 11.6835377,7.65031746 11.6835377,9.27657143 C11.6835377,10.9024762 10.378066,12.220381 8.7675,12.220381 M8.7675,4.74107937 C6.28627358,4.74107937 4.2747956,6.77171429 4.2747956,9.27657143 C4.2747956,11.7810794 6.28627358,13.8117143 8.7675,13.8117143 C11.2487264,13.8117143 13.2602044,11.7810794 13.2602044,9.27657143 C13.2602044,6.77171429 11.2487264,4.74107937 8.7675,4.74107937" id="Fill-4"></path>
                        <path d="M14.4873616,4.56186667 C14.4873616,5.14713651 14.0172673,5.62170794 13.4375189,5.62170794 C12.8577704,5.62170794 12.3876761,5.14713651 12.3876761,4.56186667 C12.3876761,3.97659683 12.8577704,3.5020254 13.4375189,3.5020254 C14.0172673,3.5020254 14.4873616,3.97659683 14.4873616,4.56186667" id="Fill-6"></path>
                    </g>
                </g>
            </g>
        </g>
    </g>
</svg>