<?xml version="1.0" encoding="UTF-8"?>
<svg width="35px" height="35px" viewBox="0 0 35 35" version="1.1" xmlns="http://www.w3.org/2000/svg" xmlns:xlink="http://www.w3.org/1999/xlink">
    <!-- Generator: sketchtool 46.2 (44496) - http://www.bohemiancoding.com/sketch -->
    <title>96EF0C07-63C8-4CC3-B9CB-19997AC0C967</title>
    <desc>Created with sketchtool.</desc>
    <defs></defs>
    <g id="Page-1" stroke="none" stroke-width="1" fill="none" fill-rule="evenodd">
        <g id="rs-Newsletter-tips-highlightstory" transform="translate(-385.000000, -1920.000000)">
            <g id="Group-26" transform="translate(385.000000, 1920.000000)">
                <g id="linkedin-icon">
                    <circle id="Oval-Copy-3" fill="#ECEEF0" cx="17.5" cy="17.5" r="17.5"></circle>
                    <polygon id="Fill-1" fill="#FFFFFF" points="10.9506667 25.2611 13.9345714 25.2611 13.9345714 15.671481 10.9506667 15.671481"></polygon>
                    <path d="M12.4433476,14.3615095 C11.4864905,14.3615095 10.7142048,13.5876048 10.7142048,12.6331762 C10.7142048,11.6787476 11.4864905,10.9048429 12.4433476,10.9048429 C13.3969667,10.9048429 14.1708714,11.6787476 14.1708714,12.6331762 C14.1708714,13.5876048 13.3969667,14.3615095 12.4433476,14.3615095" id="Fill-2" fill="#FFFFFF"></path>
                    <path d="M25.0967714,25.2611 L22.1169143,25.2611 L22.1169143,20.5974333 C22.1169143,19.4859571 22.0974857,18.054719 20.5682952,18.054719 C19.0172476,18.054719 18.7808667,19.2673857 18.7808667,20.5181 L18.7808667,25.2611 L15.8042476,25.2611 L15.8042476,15.671481 L18.6610571,15.671481 L18.6610571,16.9829095 L18.7015333,16.9829095 C19.0990095,16.2284333 20.0720571,15.433481 21.5219143,15.433481 C24.5390095,15.433481 25.0967714,17.4192429 25.0967714,20.0016238 L25.0967714,25.2611 Z" id="Fill-5" fill="#FFFFFF"></path>
                </g>
            </g>
        </g>
    </g>
</svg>