<?xml version="1.0" encoding="UTF-8"?>
<svg width="35px" height="35px" viewBox="0 0 35 35" version="1.1" xmlns="http://www.w3.org/2000/svg" xmlns:xlink="http://www.w3.org/1999/xlink">
    <!-- Generator: sketchtool 46.2 (44496) - http://www.bohemiancoding.com/sketch -->
    <title>FDB8DD1F-6981-4E79-9DFD-C41EB4623CBF</title>
    <desc>Created with sketchtool.</desc>
    <defs></defs>
    <g id="Page-1" stroke="none" stroke-width="1" fill="none" fill-rule="evenodd">
        <g id="rs-Newsletter-tips-highlightstory" transform="translate(-430.000000, -1920.000000)">
            <g id="Group-26" transform="translate(385.000000, 1920.000000)">
                <g id="twitter-icon" transform="translate(45.000000, 0.000000)">
                    <circle id="Oval-Copy-2" fill="#ECEEF0" cx="17.5" cy="17.5" r="17.5"></circle>
                    <path d="M26.2581758,12.6504552 C25.6229188,12.9300734 24.939726,13.1193467 24.224576,13.2038974 C24.9546249,12.7684828 25.5164668,12.078987 25.7814092,11.2575148 C25.0982164,11.66074 24.3392332,11.9543069 23.533178,12.1109617 C22.8871246,11.4270454 21.9672759,11 20.9485326,11 C18.9924505,11 17.4084106,12.5749176 17.4084106,14.5182959 C17.4084106,14.7944805 17.4388563,15.062725 17.4982362,15.3200252 C14.5562318,15.1741002 11.9476185,13.7730051 10.2018493,11.6444308 C9.89674454,12.1641815 9.72184373,12.7684828 9.72184373,13.413772 C9.72184373,14.6346067 10.3834438,15.7112331 11.3339542,16.3425736 C10.7531107,16.3236892 9.76546097,16.1661759 9.76546097,15.9022233 L9.76546097,15.94643 C9.76546097,17.6511779 10.9493883,19.0737325 12.569704,19.396699 C12.2728045,19.4771724 11.9417885,19.5196623 11.6185459,19.5196623 C11.390743,19.5196623 11.1597012,19.497559 10.9426946,19.4557128 C11.3933341,20.8538036 12.6960213,21.87206 14.2461607,21.8999574 C13.0341628,22.8443929 11.5054002,23.4070627 9.84556986,23.4070627 C9.56011446,23.4070627 9.27703425,23.3905389 9,23.3568473 C10.5665499,24.3564339 12.42784,24.9394903 14.4268915,24.9394903 C20.9401115,24.9394903 24.5009625,19.5763156 24.5009625,14.9273152 C24.5009625,14.7740939 24.4977236,14.6223748 24.4910298,14.471514 C25.1832916,13.9753688 25.7820569,13.3556166 26.2581758,12.6504552" id="Fill-1" fill="#FFFFFF"></path>
                </g>
            </g>
        </g>
    </g>
</svg>